#tb 0: 1/44100
#media_type 0: audio
#codec_id 0: pcm_s16le
#sample_rate 0: 44100
#channel_layout_name 0: stereo
0,          0,          0,     4096,    16384, 0x1149d831
0,       4096,       4096,     4096,    16384, 0xdd07e027
0,       8192,       8192,     4096,    16384, 0x1b89ede1
0,      12288,      12288,     4096,    16384, 0x2a54e5cb
0,      16384,      16384,     4096,    16384, 0xf9a2ef0f
0,      20480,      20480,     4096,    16384, 0xd0bbe7cb
0,      24576,      24576,     4096,    16384, 0xce39d993
0,      28672,      28672,     4096,    16384, 0x1e79e3ab
0,      32768,      32768,     4096,    16384, 0x0846d86d
0,      36864,      36864,     4096,    16384, 0xdd07e027
0,      40960,      40960,     4096,    16384, 0x0bf6f591
0,      45056,      45056,     4096,    16384, 0x3d12be6d
0,      49152,      49152,     4096,    16384, 0xdd6ef309
0,      53248,      53248,     4096,    16384, 0x6081d879
0,      57344,      57344,     4096,    16384, 0x57011488
0,      61440,      61440,     4096,    16384, 0xbb75dc5f
0,      65536,      65536,     4096,    16384, 0xa850d0fb
0,      69632,      69632,     4096,    16384, 0x99ffb789
0,      73728,      73728,     4096,    16384, 0xc27fe621
0,      77824,      77824,     4096,    16384, 0xc90ae24b
0,      81920,      81920,     4096,    16384, 0x6ac38b41
0,      86016,      86016,     4096,    16384, 0xb073839f
0,      90112,      90112,     4096,    16384, 0x44d05406
0,      94208,      94208,     4096,    16384, 0xe3257161
0,      98304,      98304,     4096,    16384, 0xf5edc54d
0,     102400,     102400,     4096,    16384, 0x0b613dea
0,     106496,     106496,     4096,    16384, 0xb1abb9df
0,     110592,     110592,     4096,    16384, 0x22a41986
0,     114688,     114688,     4096,    16384, 0x79c98a96
0,     118784,     118784,     4096,    16384, 0x450c03e6
0,     122880,     122880,     4096,    16384, 0x4bf1f4fe
0,     126976,     126976,     4096,    16384, 0x32745032
0,     131072,     131072,     4096,    16384, 0xab689d2d
0,     135168,     135168,     4096,    16384, 0x2708d7b6
0,     139264,     139264,     4096,    16384, 0x01b3fec0
0,     143360,     143360,     4096,    16384, 0xe1aad176
0,     147456,     147456,     4096,    16384, 0xce33f547
0,     151552,     151552,     4096,    16384, 0xf13be6d5
0,     155648,     155648,     4096,    16384, 0x3eddf4e7
0,     159744,     159744,     4096,    16384, 0x3475e48c
0,     163840,     163840,     4096,    16384, 0xd25ede11
0,     167936,     167936,     4096,    16384, 0x4f30eb6a
0,     172032,     172032,     4096,    16384, 0xcf69ed9c
0,     176128,     176128,     4096,    16384, 0x0f160f10
0,     180224,     180224,     4096,    16384, 0xa2fbf76f
0,     184320,     184320,     4096,    16384, 0x27de8d22
0,     188416,     188416,     4096,    16384, 0x2f84eb76
0,     192512,     192512,     4096,    16384, 0x4974dfef
0,     196608,     196608,     4096,    16384, 0xb339d686
0,     200704,     200704,     4096,    16384, 0x7e65bc18
0,     204800,     204800,     4096,    16384, 0x329fd793
0,     208896,     208896,     4096,    16384, 0xb94013cb
0,     212992,     212992,     4096,    16384, 0xa2fbf76f
0,     217088,     217088,     4096,    16384, 0x27de8d22
0,     221184,     221184,     4096,    16384, 0x2f84eb76
0,     225280,     225280,     4096,    16384, 0x4974dfef
0,     229376,     229376,     4096,    16384, 0xb339d686
0,     233472,     233472,     4096,    16384, 0x7e65bc18
0,     237568,     237568,     4096,    16384, 0x329fd793
0,     241664,     241664,     4096,    16384, 0xb94013cb
0,     245760,     245760,     4096,    16384, 0xa2fbf76f
0,     249856,     249856,     4096,    16384, 0x27de8d22
0,     253952,     253952,     4096,    16384, 0x2f84eb76
0,     258048,     258048,     4096,    16384, 0x4974dfef
0,     262144,     262144,     2456,     9824, 0xf047087f
